
<svg width="100" height="100" xmlns="http://www.w3.org/2000/svg">
  <defs>
    <pattern id="hexagons" width="50" height="43.4" patternUnits="userSpaceOnUse" patternTransform="scale(0.5)">
      <polygon points="24.8,22 37.3,29.2 37.3,43.7 24.8,50.9 12.3,43.7 12.3,29.2" fill="none" stroke="#8B4513" stroke-width="0.5" opacity="0.3"/>
      <polygon points="50,22 62.5,29.2 62.5,43.7 50,50.9 37.5,43.7 37.5,29.2" fill="none" stroke="#8B4513" stroke-width="0.5" opacity="0.3"/>
      <polygon points="0,22 12.5,29.2 12.5,43.7 0,50.9 -12.5,43.7 -12.5,29.2" fill="none" stroke="#8B4513" stroke-width="0.5" opacity="0.3"/>
      <polygon points="24.8,-0.7 37.3,6.5 37.3,21 24.8,28.2 12.3,21 12.3,6.5" fill="none" stroke="#8B4513" stroke-width="0.5" opacity="0.3"/>
      <polygon points="50,-0.7 62.5,6.5 62.5,21 50,28.2 37.5,21 37.5,6.5" fill="none" stroke="#8B4513" stroke-width="0.5" opacity="0.3"/>
      <polygon points="0,-0.7 12.5,6.5 12.5,21 0,28.2 -12.5,21 -12.5,6.5" fill="none" stroke="#8B4513" stroke-width="0.5" opacity="0.3"/>
      <polygon points="24.8,44.7 37.3,51.9 37.3,66.4 24.8,73.6 12.3,66.4 12.3,51.9" fill="none" stroke="#8B4513" stroke-width="0.5" opacity="0.3"/>
      <polygon points="50,44.7 62.5,51.9 62.5,66.4 50,73.6 37.5,66.4 37.5,51.9" fill="none" stroke="#8B4513" stroke-width="0.5" opacity="0.3"/>
      <polygon points="0,44.7 12.5,51.9 12.5,66.4 0,73.6 -12.5,66.4 -12.5,51.9" fill="none" stroke="#8B4513" stroke-width="0.5" opacity="0.3"/>
    </pattern>
  </defs>
  <rect width="100" height="100" fill="url(#hexagons)" />
</svg>
